<?xml version="1.0" encoding="UTF-8" standalone="no"?>
<!-- Created with Inkscape (http://www.inkscape.org/) -->

<svg
   width="135.46666mm"
   height="101.60002mm"
   viewBox="0 0 135.46666 101.60002"
   version="1.1"
   id="svg1"
   xml:space="preserve"
   xmlns="http://www.w3.org/2000/svg"
   xmlns:svg="http://www.w3.org/2000/svg"><defs
     id="defs1"><linearGradient
       id="swatch2"><stop
         style="stop-color:#ffffff;stop-opacity:1;"
         offset="0"
         id="stop2" /></linearGradient></defs><g
     id="layer1"
     transform="translate(85.220138,163.37172)"><g
       id="g3"><path
         d="m -68.286808,-150.67171 c -2.328333,0 -4.233333,1.905 -4.233333,4.23334 v 5.84729 l 45.640625,37.465 c 5.476877,4.497911 13.334997,4.497911 18.811877,0 l 45.61417,-37.465 v -5.84729 c 0,-2.32834 -1.905,-4.23334 -4.23334,-4.23334 z m -4.233333,26.51125 v 45.455421 c 0,2.32833 1.905,4.23333 4.233333,4.23333 H 33.313191 c 2.32834,0 4.23334,-1.905 4.23334,-4.23333 v -45.455421 l -37.57083999,30.850421 c -10.16000001,8.33437 -24.79145701,8.33437 -34.92499901,0 z m -12.7,-22.27791 c 0,-9.3398 7.593542,-16.93334 16.933333,-16.93334 H 33.313191 c 9.33979,0 16.93334,7.59354 16.93334,16.93334 v 67.733331 c 0,9.33979 -7.59355,16.93333 -16.93334,16.93333 H -68.286808 c -9.339791,0 -16.933333,-7.59354 -16.933333,-16.93333 z"
         id="path1"
         style="fill:#ffffff;fill-opacity:1;stroke-width:0.264583" /></g></g></svg>
