<?xml version="1.0" encoding="UTF-8" standalone="no"?>
<!-- Created with Inkscape (http://www.inkscape.org/) -->

<svg
   width="135.46669mm"
   height="134.96426mm"
   viewBox="0 0 135.46669 134.96426"
   version="1.1"
   id="svg1"
   xml:space="preserve"
   xmlns="http://www.w3.org/2000/svg"
   xmlns:svg="http://www.w3.org/2000/svg"><defs
     id="defs1"><linearGradient
       id="swatch2"><stop
         style="stop-color:#ffffff;stop-opacity:1;"
         offset="0"
         id="stop2" /></linearGradient></defs><g
     id="layer1"
     transform="translate(-73.798331,152.41564)"><path
       d="m 209.265,-84.682019 c 0,-37.412251 -30.32125,-67.733611 -67.73334,-67.733611 -37.41209,0 -67.733331,30.32136 -67.733331,67.733611 0,31.75 21.881042,58.420012 51.382081,65.748972 v -45.058552 h -13.97 v -20.69042 h 13.97 v -8.916472 c 0,-23.045329 10.42458,-33.734559 33.07292,-33.734559 4.28625,0 11.69458,0.84667 14.73729,1.69334 v 18.73261 c -1.5875,-0.15875 -4.36562,-0.26458 -7.83167,-0.26458 -11.1125,0 -15.39875,4.20689 -15.39875,15.134249 v 7.355412 h 22.11917 l -3.81,20.69042 h -18.33562 v 46.540222 c 33.54916,-4.04813 59.53125,-32.596681 59.53125,-67.230642 z"
       id="path1-6"
       style="fill:#ffffff;fill-opacity:1;stroke-width:0.264583" /></g></svg>
