<?xml version="1.0" encoding="UTF-8" standalone="no"?>
<!-- Created with Inkscape (http://www.inkscape.org/) -->

<svg
   width="118.59949mm"
   height="118.57303mm"
   viewBox="0 0 118.59949 118.57303"
   version="1.1"
   id="svg1"
   xml:space="preserve"
   xmlns="http://www.w3.org/2000/svg"
   xmlns:svg="http://www.w3.org/2000/svg"><defs
     id="defs1"><linearGradient
       id="swatch2"><stop
         style="stop-color:#ffffff;stop-opacity:1;"
         offset="0"
         id="stop2" /></linearGradient></defs><g
     id="layer1"
     transform="translate(-263.24231,-141.82867)"><path
       d="m 322.55528,170.71456 c -16.8275,0 -30.40063,13.57312 -30.40063,30.40062 0,16.8275 13.57313,30.40063 30.40063,30.40063 16.8275,0 30.40063,-13.57313 30.40063,-30.40063 0,-16.8275 -13.57313,-30.40062 -30.40063,-30.40062 z m 0,50.165 c -10.87438,0 -19.76438,-8.86355 -19.76438,-19.76438 0,-10.90083 8.86355,-19.76437 19.76438,-19.76437 10.90084,0 19.76438,8.86354 19.76438,19.76437 0,10.90083 -8.89,19.76438 -19.76438,19.76438 z m 38.735,-51.40855 c 0,3.9423 -3.175,7.09084 -7.09083,7.09084 -3.94229,0 -7.09083,-3.175 -7.09083,-7.09084 0,-3.91583 3.175,-7.09083 7.09083,-7.09083 3.91583,0 7.09083,3.175 7.09083,7.09083 z m 20.1348,7.19667 c -0.4498,-9.49854 -2.61938,-17.91229 -9.57792,-24.84437 -6.93208,-6.93209 -15.34584,-9.10167 -24.84438,-9.57792 -9.78958,-0.55563 -39.13188,-0.55563 -48.92146,0 -9.47208,0.44979 -17.88583,2.61937 -24.84438,9.55146 -6.95854,6.93208 -9.10166,15.34583 -9.57791,24.84437 -0.55563,9.78959 -0.55563,39.13188 0,48.92146 0.44979,9.49855 2.61937,17.9123 9.57791,24.84438 6.95855,6.93208 15.34584,9.10167 24.84438,9.57792 9.78958,0.55562 39.13188,0.55562 48.92146,0 9.49854,-0.4498 17.9123,-2.61938 24.84438,-9.57792 6.93208,-6.93208 9.10167,-15.34583 9.57792,-24.84438 0.55562,-9.78958 0.55562,-39.10542 0,-48.895 z m -12.64709,59.39896 c -2.06375,5.18584 -6.05896,9.18104 -11.27125,11.27125 -7.80521,3.09563 -26.32604,2.38125 -34.95146,2.38125 -8.62542,0 -27.17271,0.68792 -34.95146,-2.38125 -5.18583,-2.06375 -9.18104,-6.05896 -11.27125,-11.27125 -3.09563,-7.80521 -2.38125,-26.32604 -2.38125,-34.95146 0,-8.62542 -0.68792,-27.17271 2.38125,-34.95146 2.06375,-5.18583 6.05896,-9.18104 11.27125,-11.27125 7.80521,-3.09562 26.32604,-2.38125 34.95146,-2.38125 8.62542,0 27.17271,-0.68791 34.95146,2.38125 5.18583,2.06375 9.18104,6.05896 11.27125,11.27125 3.09563,7.80521 2.38125,26.32604 2.38125,34.95146 0,8.62542 0.71438,27.17271 -2.38125,34.95146 z"
       id="path1-3"
       style="fill:#ffffff;fill-opacity:1;stroke-width:0.264583" /></g></svg>
