<?xml version="1.0" encoding="UTF-8" standalone="no"?>
<!-- Created with Inkscape (http://www.inkscape.org/) -->

<svg
   width="118.53246mm"
   height="135.45435mm"
   viewBox="0 0 118.53246 135.45435"
   version="1.1"
   id="svg1"
   xml:space="preserve"
   xmlns:xlink="http://www.w3.org/1999/xlink"
   xmlns="http://www.w3.org/2000/svg"
   xmlns:svg="http://www.w3.org/2000/svg"><defs
     id="defs1"><linearGradient
       id="swatch2"><stop
         style="stop-color:#ffffff;stop-opacity:1;"
         offset="0"
         id="stop2" /></linearGradient><linearGradient
       xlink:href="#swatch2"
       id="linearGradient2"
       x1="-127.16292"
       y1="114.59631"
       x2="-8.6304588"
       y2="114.59631"
       gradientUnits="userSpaceOnUse" /></defs><g
     id="layer1"
     transform="translate(127.16292,-46.869132)"><g
       id="g2"><path
         d="m -8.6304589,102.40518 c -11.6524121,0.025 -23.0180521,-3.612426 -32.4908301,-10.398133 v 47.307503 c -0.0056,17.94172 -11.145213,33.99631 -27.949505,40.28123 -16.804243,6.2849 -35.743926,1.48018 -47.522236,-12.05395 -11.77831,-13.53413 -13.92205,-32.9558 -5.37722,-48.73136 8.54486,-15.77561 25.98372,-24.591967 43.754375,-22.120293 v 23.786043 c -18.194421,-5.7275 -33.118055,15.11747 -21.843175,30.49623 5.045361,6.88179 13.940939,9.74283 22.051224,7.09107 8.110321,-2.65178 13.598345,-10.21574 13.603197,-18.74897 V 46.86913 h 23.28334 c -0.01314,1.969199 0.155144,3.935422 0.50271,5.87375 v 0 c 1.636461,8.7321 6.79392,16.406095 14.26104,21.219587 5.259272,3.473558 11.424261,5.323054 17.7270801,5.31812 z"
         id="path1-2"
         style="opacity:1;fill:url(#linearGradient2);stroke-width:0.264583" /></g></g></svg>
