<?xml version="1.0" encoding="UTF-8" standalone="no"?>
<!-- Created with Inkscape (http://www.inkscape.org/) -->

<svg
   width="118.53338mm"
   height="118.53335mm"
   viewBox="0 0 118.53338 118.53335"
   version="1.1"
   id="svg1"
   xml:space="preserve"
   xmlns="http://www.w3.org/2000/svg"
   xmlns:svg="http://www.w3.org/2000/svg"><defs
     id="defs1"><linearGradient
       id="swatch2"><stop
         style="stop-color:#ffffff;stop-opacity:1;"
         offset="0"
         id="stop2" /></linearGradient></defs><g
     id="layer1"
     transform="translate(-257.47532,171.59672)"><path
       d="m 358.25511,-154.37233 c -11.08604,-11.1125 -25.84979,-17.22438 -41.53958,-17.22438 -32.385,0 -58.7375,26.3525 -58.7375,58.7375 0,10.34521 2.69875,20.452291 7.83166,29.368755 l -8.33437,30.42709 31.14146,-8.17563 c 8.5725,4.68313 18.22979,7.14375 28.07229,7.14375 h 0.0265 c 32.35854,0 59.29312,-26.3525 59.29312,-58.737505 0,-15.68979 -6.6675,-30.42708 -17.75354,-41.53958 z m -41.53958,90.381675 c -8.78417,0 -17.38313,-2.35479 -24.87084,-6.79979 l -1.77271,-1.05834 -18.46791,4.84188 4.92125,-18.01813 -1.16417,-1.852084 c -4.89479,-7.77875 -7.46125,-16.748131 -7.46125,-25.982091 0,-26.90812 21.9075,-48.81562 48.84209,-48.81562 13.04395,0 25.29416,5.08 34.50166,14.31396 9.2075,9.23395 14.86959,21.48416 14.84313,34.52812 0,26.934581 -22.46313,48.842095 -49.37125,48.842095 z m 26.77583,-36.565425 c -1.45521,-0.74084 -8.67833,-4.28625 -10.02771,-4.7625 -1.34937,-0.50271 -2.32833,-0.74084 -3.30729,0.74083 -0.97896,1.48167 -3.78354,4.762501 -4.65667,5.767921 -0.84666,0.97896 -1.71979,1.11125 -3.175,0.37041 -8.62541,-4.312701 -14.2875,-7.699371 -19.97604,-17.462501 -1.50812,-2.59291 1.50813,-2.4077 4.31271,-8.01687 0.47625,-0.97896 0.23812,-1.82563 -0.13229,-2.56646 -0.37042,-0.74083 -3.30729,-7.96396 -4.52438,-10.90083 -1.19062,-2.8575 -2.40771,-2.46063 -3.30729,-2.51354 -0.84667,-0.0529 -1.82562,-0.0529 -2.80458,-0.0529 -0.97896,0 -2.56646,0.37041 -3.91584,1.82562 -1.34937,1.48167 -5.13291,5.02709 -5.13291,12.25021 0,7.22313 5.26521,14.20813 5.97958,15.18708 0.74083,0.97896 10.34521,15.795631 25.0825,22.172091 9.31334,4.021664 12.96459,4.365624 17.62125,3.677714 2.83104,-0.423344 8.67834,-3.545424 9.89542,-6.985004 1.21708,-3.43959 1.21708,-6.37646 0.84667,-6.985 -0.34396,-0.66146 -1.32292,-1.03188 -2.77813,-1.746251 z"
       id="path1-26"
       style="fill:#ffffff;fill-opacity:1;stroke-width:0.264583" /></g></svg>
